<svg viewBox="0 0 346.25 48.51" xmlns="http://www.w3.org/2000/svg"><g fill="#e8871e"><path d="m16.82 47.7-16.82-46.9h10.42l10.28 30.09c.14.42.27.83.4 1.24s.24.73.31 1c0-.22.12-.53.23-.94s.25-.83.4-1.3l10.25-30.09h10.32l-16.75 46.9z"/><path d="m54.6 47.7v-46.9h33v9.2h-23.35v9h13.3v9.14h-13.3v10.35h24.69v9.21z"/><path d="m102.21 47.7v-46.9h16.79a25 25 0 0 1 10.46 2 19.07 19.07 0 0 1 7 5.34 21.72 21.72 0 0 1 4 7.56 29.91 29.91 0 0 1 1.24 8.57 28.91 28.91 0 0 1 -1.19 8.11 22.8 22.8 0 0 1 -3.85 7.62 19.22 19.22 0 0 1 -7 5.61 24.75 24.75 0 0 1 -10.85 2.12zm9.65-9.18h7.83a11.42 11.42 0 0 0 5.62-1.27 10.55 10.55 0 0 0 3.7-3.38 15.27 15.27 0 0 0 2.06-4.62 19.88 19.88 0 0 0 0-10.16 15.77 15.77 0 0 0 -2-4.62 10.18 10.18 0 0 0 -3.5-3.31 10 10 0 0 0 -5.09-1.24h-8.57z"/><path d="m173.33 48.51a19.94 19.94 0 0 1 -9.58-2.13 17.86 17.86 0 0 1 -6.39-5.66 25 25 0 0 1 -3.55-7.82 33.92 33.92 0 0 1 0-17.29 25 25 0 0 1 3.55-7.82 17.86 17.86 0 0 1 6.39-5.66 22.68 22.68 0 0 1 19.19 0 18 18 0 0 1 6.35 5.66 24.32 24.32 0 0 1 3.53 7.82 34.22 34.22 0 0 1 0 17.29 24.32 24.32 0 0 1 -3.53 7.82 18 18 0 0 1 -6.35 5.66 19.9 19.9 0 0 1 -9.61 2.13zm0-9.31a8.63 8.63 0 0 0 5-1.38 10.33 10.33 0 0 0 3.27-3.63 18.43 18.43 0 0 0 1.81-4.88 23.72 23.72 0 0 0 .57-5.06 26.31 26.31 0 0 0 -.54-5.26 16.8 16.8 0 0 0 -1.76-4.85 9.78 9.78 0 0 0 -3.26-3.55 9 9 0 0 0 -5.06-1.34 8.76 8.76 0 0 0 -5.06 1.39 10.25 10.25 0 0 0 -3.3 3.63 17.11 17.11 0 0 0 -1.78 4.89 25.49 25.49 0 0 0 -.54 5.09 25.16 25.16 0 0 0 .56 5.21 16.53 16.53 0 0 0 1.76 4.84 10 10 0 0 0 3.3 3.55 8.84 8.84 0 0 0 5.03 1.35z"/></g><path d="m206.46 47.7v-46.9h20.43c4 0 7.15.74 9.52 2.2a12.73 12.73 0 0 1 5.09 5.61 17.15 17.15 0 0 1 1.5 7.14 16 16 0 0 1 -.9 5.2 14.31 14.31 0 0 1 -2.84 4.83 13.88 13.88 0 0 1 -5 3.53 18.44 18.44 0 0 1 -7.41 1.34h-10.74v17.05zm9.65-26.13h11.19a5.9 5.9 0 0 0 3.38-.87 5 5 0 0 0 1.84-2.22 7 7 0 0 0 .57-2.73 7.24 7.24 0 0 0 -.52-2.63 5 5 0 0 0 -1.79-2.3 5.8 5.8 0 0 0 -3.48-.94h-11.19z" fill="#3f3f37"/><path d="m274.66 48.51a22.37 22.37 0 0 1 -10.28-2.21 15.45 15.45 0 0 1 -6.63-6.42 20.83 20.83 0 0 1 -2.32-10.17v-28.91h9.65v28.91q0 5.1 2.3 7.29c1.53 1.46 4 2.2 7.28 2.2a13.59 13.59 0 0 0 5.28-.91 6.24 6.24 0 0 0 3.2-3 12.34 12.34 0 0 0 1.07-5.58v-28.91h9.65v28.91a21.38 21.38 0 0 1 -1.59 8.71 15.56 15.56 0 0 1 -4.27 5.82 17.61 17.61 0 0 1 -6.14 3.25 25 25 0 0 1 -7.2 1.02z" fill="#3f3f37"/><path d="m308 47.7v-46.9h22.31q5.9 0 9.36 2.06a11.9 11.9 0 0 1 5 5.46 18.2 18.2 0 0 1 1.49 7.36 15.78 15.78 0 0 1 -3.99 10.32 12.06 12.06 0 0 1 -4.89 3.3l9 18.42h-10.81l-8.65-17h-9.18v17zm9.64-26.06h12.8a6 6 0 0 0 3.4-.84 4.53 4.53 0 0 0 1.78-2.19 8.15 8.15 0 0 0 0-5.65 4.5 4.5 0 0 0 -1.74-2.21 6 6 0 0 0 -3.47-.87h-12.8z" fill="#3f3f37"/></svg>