<?xml version="1.0" standalone="no"?>
<!DOCTYPE svg PUBLIC "-//W3C//DTD SVG 20010904//EN"
 "http://www.w3.org/TR/2001/REC-SVG-20010904/DTD/svg10.dtd">
<svg version="1.0" xmlns="http://www.w3.org/2000/svg"
 width="2390.000000pt" height="2390.000000pt" viewBox="0 0 2390.000000 2390.000000"
 preserveAspectRatio="xMidYMid meet">
<metadata>
Created by potrace 1.14, written by Peter Selinger 2001-2017
</metadata>
<g transform="translate(0.000000,2390.000000) scale(0.100000,-0.100000)"
fill="#000000" stroke="none">
<path d="M11737 23894 c-1 -1 -96 -5 -212 -8 -115 -4 -230 -9 -255 -11 -25 -2
-94 -6 -155 -10 -60 -3 -123 -8 -140 -10 -16 -2 -66 -7 -110 -11 -162 -13
-238 -21 -297 -29 -21 -3 -55 -7 -75 -10 -171 -21 -252 -32 -373 -51 -52 -9
-111 -17 -130 -20 -19 -2 -55 -8 -80 -14 -25 -5 -61 -12 -80 -14 -57 -8 -296
-55 -440 -87 -1404 -309 -2726 -860 -3930 -1640 -476 -309 -1052 -746 -1414
-1074 -12 -11 -60 -54 -106 -95 -264 -237 -659 -633 -881 -885 -24 -27 -51
-57 -59 -65 -27 -26 -291 -340 -383 -455 -97 -123 -300 -390 -392 -517 -132
-183 -443 -658 -530 -810 -5 -9 -46 -79 -90 -155 -44 -76 -86 -149 -93 -163
-7 -14 -26 -47 -41 -75 -305 -544 -633 -1293 -844 -1925 -168 -504 -340 -1153
-400 -1515 -3 -16 -10 -55 -17 -85 -6 -30 -13 -68 -16 -85 -2 -16 -13 -79 -24
-140 -10 -60 -21 -130 -25 -155 -3 -25 -8 -56 -10 -70 -5 -28 -8 -54 -25 -180
-6 -47 -13 -96 -15 -110 -2 -14 -6 -56 -10 -95 -4 -38 -8 -77 -10 -85 -2 -8
-6 -51 -9 -95 -4 -44 -9 -93 -11 -110 -2 -16 -7 -70 -10 -120 -4 -49 -8 -108
-10 -130 -4 -44 -14 -222 -21 -380 -6 -137 -6 -774 0 -915 7 -148 16 -309 21
-385 9 -126 16 -211 20 -245 2 -19 7 -64 10 -100 3 -36 8 -81 10 -100 2 -19 7
-60 10 -90 3 -30 8 -66 10 -80 3 -14 7 -50 10 -80 3 -30 8 -66 10 -80 2 -14 7
-45 10 -70 3 -25 10 -70 15 -100 10 -64 20 -125 25 -160 7 -49 37 -217 56
-313 10 -53 21 -110 24 -125 11 -64 84 -389 101 -457 9 -33 17 -67 19 -75 55
-251 323 -1109 394 -1265 5 -11 24 -58 41 -105 29 -78 124 -312 155 -385 142
-327 342 -744 455 -950 135 -245 263 -471 305 -535 24 -38 214 -341 230 -368
56 -94 358 -521 489 -692 156 -203 490 -611 571 -696 5 -6 44 -48 85 -94 300
-333 706 -732 1020 -1000 47 -40 87 -76 90 -79 8 -10 213 -178 325 -267 55
-43 102 -81 105 -84 12 -12 326 -244 450 -332 74 -52 216 -148 315 -213 249
-163 276 -180 310 -199 17 -9 59 -34 94 -56 34 -22 65 -40 67 -40 2 0 41 -23
85 -50 44 -28 82 -50 84 -50 1 0 45 -24 96 -53 326 -184 827 -429 1169 -572
36 -15 81 -34 100 -42 63 -27 74 -32 191 -77 293 -114 595 -218 879 -305 165
-50 340 -100 372 -106 9 -2 51 -13 92 -25 130 -36 614 -147 721 -164 20 -4
189 -34 340 -61 44 -8 100 -16 125 -19 25 -4 54 -8 66 -10 12 -2 45 -7 75 -11
30 -3 61 -8 69 -10 8 -2 44 -7 80 -10 36 -4 72 -8 80 -10 8 -2 44 -6 80 -10
36 -3 76 -8 90 -10 14 -3 57 -7 95 -10 39 -3 88 -7 110 -10 134 -14 418 -32
630 -41 120 -5 810 -4 915 0 140 7 337 18 380 21 25 2 83 6 130 10 47 3 99 8
115 10 17 2 66 6 110 10 44 4 87 9 95 10 8 2 49 6 90 10 41 4 82 9 91 10 9 2
40 6 70 10 30 3 65 8 79 10 14 3 45 7 70 10 25 3 56 8 70 10 14 2 57 9 95 15
39 6 81 13 95 15 14 2 45 7 70 10 24 4 47 8 50 10 4 2 29 7 56 10 101 14 688
139 814 175 19 5 87 23 150 40 233 63 423 119 625 185 123 40 369 125 390 135
11 5 75 30 143 55 175 64 476 189 692 287 25 11 74 34 110 50 87 40 463 228
570 286 106 56 240 130 260 142 18 11 161 94 209 122 292 168 865 555 1161
785 231 179 655 531 749 621 10 10 71 67 136 127 200 185 520 509 736 746 600
660 1223 1539 1626 2297 25 48 49 92 53 97 10 13 240 474 270 540 13 28 40 87
61 133 269 574 544 1365 708 2037 29 116 54 219 57 230 7 32 45 208 50 235 2
14 9 45 14 70 5 25 12 56 14 70 3 21 27 146 42 225 8 44 33 193 39 235 3 25 8
56 10 70 7 50 25 176 30 220 3 25 7 61 10 80 9 66 14 115 20 175 3 33 8 76 11
95 4 36 8 81 19 225 3 44 8 100 10 125 2 25 7 104 10 175 3 72 8 162 11 200 6
85 6 793 0 925 -8 184 -16 336 -21 385 -2 28 -7 86 -10 130 -3 44 -8 94 -10
110 -2 17 -7 66 -11 110 -3 44 -7 87 -9 95 -2 8 -6 51 -11 95 -4 44 -8 82 -9
85 -1 3 -5 32 -9 65 -4 33 -9 71 -11 85 -2 14 -7 48 -11 75 -3 28 -8 57 -9 67
-2 9 -7 38 -11 65 -3 26 -8 57 -10 68 -2 11 -7 40 -10 65 -3 25 -7 52 -9 60
-2 8 -7 31 -10 50 -3 19 -8 49 -11 65 -45 269 -161 771 -259 1120 -21 72 -41
144 -45 160 -85 311 -337 998 -497 1355 -11 25 -49 108 -83 185 -56 127 -302
626 -320 650 -4 6 -29 51 -55 100 -72 135 -88 163 -213 375 -137 232 -140 237
-348 550 -184 276 -179 269 -363 515 -204 273 -449 572 -699 854 -156 174
-523 547 -731 741 -152 141 -124 116 -267 240 -222 193 -247 215 -268 229 -12
8 -23 18 -26 21 -4 6 -219 176 -370 294 -59 46 -278 206 -370 269 -98 68 -250
171 -306 207 -112 73 -338 215 -348 220 -6 3 -76 44 -156 91 -439 262 -1036
557 -1500 743 -63 26 -124 51 -135 56 -75 33 -422 159 -650 235 -253 84 -767
232 -873 251 -13 3 -69 16 -125 30 -126 31 -116 29 -212 49 -44 9 -89 19 -100
21 -11 2 -31 6 -45 9 -38 7 -122 24 -150 30 -14 3 -41 8 -60 11 -19 3 -46 7
-60 10 -14 2 -62 11 -108 19 -90 16 -268 44 -317 50 -64 7 -131 16 -155 20
-52 10 -353 42 -465 50 -44 3 -93 8 -110 10 -72 9 -307 22 -546 31 -164 6
-628 11 -632 8z m613 -608 c113 -4 225 -9 250 -11 25 -2 93 -6 151 -10 58 -3
117 -7 130 -10 13 -2 62 -6 109 -10 47 -3 99 -8 115 -10 17 -2 61 -7 98 -10
37 -4 76 -8 85 -10 9 -1 44 -6 77 -9 33 -4 75 -9 93 -12 17 -2 49 -6 70 -9 20
-3 48 -7 62 -10 14 -2 43 -7 65 -10 38 -5 136 -20 200 -31 30 -5 114 -19 170
-30 109 -20 343 -68 410 -84 44 -10 91 -21 105 -24 47 -8 315 -77 475 -122
308 -86 610 -185 950 -312 171 -63 485 -194 700 -292 129 -58 545 -266 675
-337 222 -122 256 -141 379 -215 63 -37 118 -68 123 -68 4 0 8 -4 8 -10 0 -5
5 -10 10 -10 6 0 34 -15 63 -34 28 -18 79 -50 112 -71 82 -53 351 -232 400
-267 403 -290 681 -506 905 -703 26 -22 73 -63 106 -92 200 -173 541 -503 759
-733 44 -47 121 -130 170 -185 49 -55 94 -105 100 -111 13 -14 46 -53 115
-134 30 -36 57 -67 60 -70 3 -3 23 -27 45 -55 21 -27 42 -52 45 -55 28 -25
322 -411 472 -620 188 -262 571 -870 652 -1035 8 -16 35 -66 61 -110 112 -197
386 -768 490 -1020 7 -16 21 -52 32 -80 12 -27 30 -72 42 -100 26 -63 83 -214
106 -280 9 -27 21 -59 26 -70 28 -64 197 -581 215 -655 2 -8 19 -71 39 -140
28 -100 103 -384 120 -460 23 -97 81 -375 91 -430 2 -14 11 -59 19 -100 8 -41
16 -88 19 -105 2 -16 13 -86 25 -155 11 -69 22 -141 25 -160 11 -78 15 -107
21 -150 3 -25 7 -54 9 -65 2 -12 7 -52 10 -90 4 -39 8 -81 11 -95 7 -42 32
-312 39 -425 8 -119 18 -296 22 -380 4 -102 4 -806 -1 -905 -5 -119 -15 -279
-20 -350 -3 -36 -8 -92 -10 -125 -7 -103 -17 -199 -30 -315 -3 -19 -7 -60 -10
-90 -10 -94 -78 -564 -90 -616 -3 -12 -7 -39 -11 -60 -3 -21 -7 -43 -8 -49 -2
-5 -7 -32 -11 -60 -10 -56 -9 -50 -18 -90 -4 -16 -9 -41 -11 -55 -16 -92 -75
-346 -122 -529 -30 -119 -57 -223 -59 -231 -4 -14 -30 -102 -88 -300 -103
-346 -288 -843 -449 -1210 -255 -579 -586 -1190 -909 -1677 -209 -314 -472
-677 -630 -868 -9 -11 -63 -76 -120 -145 -89 -109 -264 -312 -309 -360 -8 -9
-62 -68 -120 -130 -252 -274 -610 -618 -920 -886 -100 -86 -377 -312 -425
-346 -5 -4 -26 -20 -45 -35 -73 -59 -279 -211 -396 -293 -126 -88 -531 -356
-564 -373 -8 -4 -27 -15 -42 -25 -35 -23 -358 -211 -428 -250 -30 -17 -84 -47
-120 -66 -72 -40 -566 -286 -675 -336 -178 -82 -749 -316 -795 -325 -8 -2 -46
-15 -85 -30 -112 -43 -544 -184 -610 -199 -5 -1 -41 -12 -80 -23 -113 -33
-481 -130 -534 -139 -12 -3 -53 -12 -90 -20 -36 -9 -73 -17 -81 -19 -8 -2 -35
-8 -60 -14 -25 -5 -61 -13 -80 -16 -19 -3 -91 -17 -160 -30 -132 -26 -219 -41
-285 -50 -22 -4 -78 -12 -125 -20 -47 -8 -112 -17 -145 -21 -33 -3 -62 -8 -65
-9 -3 -2 -39 -6 -80 -10 -41 -4 -77 -8 -80 -10 -3 -2 -39 -6 -80 -10 -41 -3
-91 -8 -110 -10 -63 -7 -134 -14 -210 -20 -41 -3 -97 -8 -125 -10 -27 -2 -108
-7 -180 -11 -71 -4 -155 -8 -185 -10 -85 -4 -784 -4 -880 0 -219 11 -349 18
-390 21 -25 2 -81 7 -125 10 -44 3 -96 8 -115 10 -19 3 -60 7 -90 10 -114 11
-179 18 -307 35 -133 18 -145 19 -203 26 -30 3 -58 8 -61 10 -4 2 -27 6 -50 9
-24 3 -71 10 -104 16 -33 6 -69 12 -80 14 -11 1 -33 5 -50 8 -16 4 -45 9 -64
12 -37 6 -326 64 -351 70 -8 2 -49 11 -90 20 -87 19 -421 102 -465 115 -16 6
-122 37 -235 70 -113 33 -266 80 -340 104 -118 39 -181 61 -380 131 -25 9
-142 55 -260 102 -504 200 -1036 458 -1495 726 -407 237 -934 590 -1231 826
-39 31 -89 70 -110 86 -445 348 -997 862 -1364 1272 -25 27 -76 85 -115 128
-38 43 -132 153 -208 244 -75 91 -143 173 -150 181 -158 190 -508 677 -674
938 -37 59 -70 109 -73 112 -3 3 -11 16 -19 30 -8 14 -58 97 -112 186 -129
213 -298 522 -423 774 -102 206 -125 256 -211 450 -26 58 -55 123 -65 145 -82
186 -252 637 -342 910 -91 277 -235 795 -278 1000 -100 479 -121 592 -165 895
-27 184 -30 211 -40 300 -4 30 -8 66 -10 80 -2 14 -6 59 -10 100 -4 41 -8 86
-10 100 -2 14 -7 68 -10 120 -4 52 -8 111 -10 130 -2 19 -6 96 -10 170 -4 74
-9 160 -11 190 -5 72 -5 793 0 890 2 41 7 134 11 205 3 72 8 153 10 180 3 28
7 76 10 108 3 31 7 85 10 120 8 93 15 158 20 197 3 19 7 56 10 81 4 46 13 120
20 169 2 14 7 49 10 79 4 30 9 63 11 75 2 11 6 38 9 61 3 22 8 51 10 65 3 14
7 41 10 60 7 42 23 135 30 170 3 14 10 52 15 85 10 63 14 84 24 125 3 14 8 36
10 50 3 20 36 168 81 370 2 8 17 69 34 135 18 66 34 131 37 145 13 61 114 403
174 590 75 232 249 706 300 815 5 11 30 70 56 130 164 385 405 869 573 1153
17 29 31 54 31 56 0 2 18 33 40 67 22 35 43 71 47 79 24 52 249 403 376 587
173 251 220 318 226 323 3 3 40 50 81 105 41 55 129 167 195 249 66 82 129
161 140 175 11 14 24 31 30 37 5 6 33 37 60 70 301 353 695 758 1029 1059 49
44 98 89 109 99 31 30 434 363 528 437 743 582 1635 1109 2514 1484 373 159
824 323 1170 424 77 23 160 48 185 56 44 14 383 103 422 110 11 2 28 7 38 10
10 3 27 7 37 9 10 2 83 18 163 36 80 17 152 33 160 35 21 3 94 18 100 20 3 0
28 5 55 10 28 4 55 9 60 11 6 1 53 9 105 18 52 9 104 18 115 20 11 2 43 7 70
11 28 5 52 9 55 10 8 2 121 17 150 20 14 2 43 5 65 9 60 8 281 34 350 41 33 3
83 7 110 10 85 9 136 13 250 20 61 4 130 9 155 11 25 1 137 6 250 10 113 3
206 7 207 8 4 3 399 -2 583 -8z"/>
</g>
</svg>
